<svg xmlns="http://www.w3.org/2000/svg" xmlns:xlink="http://www.w3.org/1999/xlink" viewBox="0 0 438.9 283.48"><defs><style>.a{fill:url(#a);}.b{fill:url(#b);}.c{fill:none;}.d{fill:url(#c);}.e{fill:url(#d);}.f{fill:url(#e);}.g{fill:url(#f);}.h{fill:#606060;}</style><radialGradient id="a" cx="166.11" cy="94.71" r="52.49" gradientUnits="userSpaceOnUse"><stop offset="0" stop-color="#9300e9"/><stop offset="0.26" stop-color="#b000f2"/><stop offset="0.52" stop-color="#c700f9"/><stop offset="0.78" stop-color="#d400fe"/><stop offset="1" stop-color="#d900ff"/></radialGradient><linearGradient id="b" x1="169.56" y1="70.23" x2="278.29" y2="128.04" gradientUnits="userSpaceOnUse"><stop offset="0" stop-color="#d900ff"/><stop offset="0.25" stop-color="#d500fe"/><stop offset="0.48" stop-color="#ca00fa"/><stop offset="0.71" stop-color="#b700f4"/><stop offset="0.93" stop-color="#9d00ec"/><stop offset="1" stop-color="#9300e9"/></linearGradient><linearGradient id="c" x1="185.62" y1="134.75" x2="632.58" y2="-527.91" gradientUnits="userSpaceOnUse"><stop offset="0" stop-color="#c100e9"/><stop offset="0.03" stop-color="#ad00da"/><stop offset="0.09" stop-color="#8e00c1"/><stop offset="0.16" stop-color="#7200ad"/><stop offset="0.23" stop-color="#5c009c"/><stop offset="0.32" stop-color="#4b008f"/><stop offset="0.43" stop-color="#400086"/><stop offset="0.58" stop-color="#390080"/><stop offset="1" stop-color="#37007f"/></linearGradient><linearGradient id="d" x1="184.75" y1="129.07" x2="294.37" y2="129.07" gradientUnits="userSpaceOnUse"><stop offset="0" stop-color="#9300e9"/><stop offset="1" stop-color="#d900ff"/></linearGradient><linearGradient id="e" x1="184.75" y1="136.59" x2="294.37" y2="136.59" xlink:href="#d"/><linearGradient id="f" x1="184.75" y1="98.18" x2="294.37" y2="98.18" gradientUnits="userSpaceOnUse"><stop offset="0" stop-color="#37007f"/><stop offset="1" stop-color="#d900ff"/></linearGradient></defs><path class="a" d="M184.91,91.81c0-.83.08-1.64.12-2.44v59.55c0,10.89-8.73,17.58-19.62,17.58-10,0-18.22-6-18.22-16V27.19a4.27,4.27,0,0,1,4.27-4.26A33.56,33.56,0,0,1,185,56.45c-11.05,9.09-40,36.78-37.24,98,0,0,12.53-32.17,36.26-57.88A39.09,39.09,0,0,1,184.91,91.81Z"/><path class="b" d="M279.15,33.53c-4.41-1.19-47.26-12.41-90.51,20-.68.58-1.94,1.52-3.61,2.89-11.05,9.09-40,36.78-37.24,98,0,0,12.53-32.17,36.26-57.88,1.52-1.72,1-1,1-1,18.81-20,44.46-35.65,76.35-28.54,1.25.12,2.08.23,2.33.28-.69-.09-1.38-.16-2.06-.22,12,2.73,25,8.7,38.72,18.92C302.38,84.8,320,47.55,279.15,33.53ZM263.76,67.3l-2.87-.74c1.08.25,2.06.5,2.91.75Z"/><path class="c" d="M258.46,129.52l.49-.11a71.06,71.06,0,0,1-12.23.47A43.22,43.22,0,0,0,258.46,129.52Z"/><path class="d" d="M186.51,94,185,95.56s-.13-.08-.25.26a1.67,1.67,0,0,0,0,.59q-.11,5.27.26,10c1.24,16.26,6.38,28.12,13.09,36.77-2.76-14.75-2.67-26.69-.61-36.37,7.76-36.44,43.58-40.57,61.28-40.31C228.92,60.93,204.66,75.33,186.51,94Z"/><path class="e" d="M259,129.41c1.51-.19,2.94-.42,4.28-.67A39.65,39.65,0,0,0,259,129.41Z"/><path class="f" d="M271.3,128.65a41.7,41.7,0,0,0-8.07.09c-1.34.25-2.77.48-4.28.67l-.49.11a43.22,43.22,0,0,1-11.74.36c-14.22-.7-32-6-49.21-23.07-2.06,9.68-2.15,21.62.61,36.37.25.33.5.66.75,1,16.85,20.79,42.76,22.21,42.76,22.21H293.7C297.71,136.66,282.94,129.7,271.3,128.65Z"/><path class="g" d="M197.51,106.81c17.17,17.1,35,22.37,49.21,23.07-10.79-1.11-25.46-6.82-27.78-29.2-.12-17.69,8.28-26.31,17.84-30.4,9.41-4,20-3.68,24.6-3.26-.87-.19-1.73-.36-2.59-.52C241.09,66.24,205.27,70.37,197.51,106.81Z"/><path class="h" d="M82.88,221.9v-4.46H71.32l-.09,4.46A11.65,11.65,0,0,1,67.9,230a10.5,10.5,0,0,1-8,3.25H52.65V216.86H41.08v45H52.65v-17h7.28a10.51,10.51,0,0,1,8,3.26,11.34,11.34,0,0,1,3.33,8.05l.09,5.74H82.88v-5.74A21.79,21.79,0,0,0,75.18,239,21.79,21.79,0,0,0,82.88,221.9Z"/><path class="h" d="M95.47,224a21.69,21.69,0,0,0-6.68,16.19V261.9h11.56V240.23a10.73,10.73,0,0,1,3.34-8,11,11,0,0,1,8.06-3.33V217.36A22.16,22.16,0,0,0,95.47,224Z"/><path class="h" d="M156.63,224a21.71,21.71,0,0,0-16.19-6.68A22.14,22.14,0,0,0,124.17,224a21.66,21.66,0,0,0-6.69,16.19,22.55,22.55,0,0,0,23,23,21.72,21.72,0,0,0,16.19-6.69,22.14,22.14,0,0,0,6.68-16.27A21.69,21.69,0,0,0,156.63,224Zm-8.23,24.24a10.68,10.68,0,0,1-8,3.35,11.42,11.42,0,0,1-11.39-11.4,10.69,10.69,0,0,1,3.34-8,11.32,11.32,0,1,1,16,16Z"/><path class="h" d="M193.29,235.35c-3.71-.74-5.59-1.12-5.65-1.12q-4.45-1.11-4.46-2.91v-.17c0-2.4,1.83-3.59,5.48-3.59a9.08,9.08,0,0,1,6.51,3l7.72-6.94q-2.16-2.82-7.54-4.71a27.39,27.39,0,0,0-8.92-1.46,18.18,18.18,0,0,0-7.61,1.89c-5.32,2.68-8,6.72-8,12.08q0,8.4,7.79,11.73a31.91,31.91,0,0,0,6.51,1.89c2,.39,3.35.66,4,.77a3.49,3.49,0,0,1,2.65,2.82V249c0,1.26-.74,2.23-2.23,2.92a9.3,9.3,0,0,1-3.84.77h-.27q-5.22,0-9.85-4.37l-6.42,8.31a23.64,23.64,0,0,0,7.71,4.29,29.32,29.32,0,0,0,8.83,1.8q10.1.24,15.58-6.44a11.63,11.63,0,0,0,2.74-7.44v-.26Q204.08,237.41,193.29,235.35Z"/><path class="h" d="M234.06,235.35c-3.71-.74-5.59-1.12-5.66-1.12-3-.74-4.45-1.71-4.45-2.91v-.17c0-2.4,1.83-3.59,5.48-3.59a9.08,9.08,0,0,1,6.51,3l7.71-6.94q-2.15-2.82-7.53-4.71a27.37,27.37,0,0,0-8.91-1.46,18.19,18.19,0,0,0-7.62,1.89c-5.32,2.68-8,6.72-8,12.08q0,8.4,7.79,11.73a31.84,31.84,0,0,0,6.52,1.89c2,.39,3.34.66,4,.77a3.48,3.48,0,0,1,2.65,2.82V249a3.2,3.2,0,0,1-2.22,2.92,9.35,9.35,0,0,1-3.85.77h-.26q-5.24,0-9.86-4.37L210,256.59a23.59,23.59,0,0,0,7.72,4.29,29.26,29.26,0,0,0,8.82,1.8q10.09.24,15.58-6.44a11.63,11.63,0,0,0,2.74-7.44v-.26Q244.85,237.41,234.06,235.35Z"/><path class="h" d="M282.28,247.68a10.62,10.62,0,0,1-8.48,3.95,11.44,11.44,0,0,1-11.39-11.4,10.7,10.7,0,0,1,3.35-8,11,11,0,0,1,8-3.33,10.79,10.79,0,0,1,8.31,3.68l6.94-9.34a22.89,22.89,0,0,0-31.51.77,21.63,21.63,0,0,0-6.69,16.19,22.55,22.55,0,0,0,23,23,22.09,22.09,0,0,0,15.85-6.43Z"/><path class="h" d="M334.53,224a21.69,21.69,0,0,0-16.19-6.68A22.16,22.16,0,0,0,302.07,224a21.69,21.69,0,0,0-6.68,16.19,22.53,22.53,0,0,0,22.95,23,21.7,21.7,0,0,0,16.19-6.69,22.15,22.15,0,0,0,6.69-16.27A21.7,21.7,0,0,0,334.53,224Zm-8.22,24.24a10.7,10.7,0,0,1-8,3.35A11.4,11.4,0,0,1,307,240.23a10.68,10.68,0,0,1,3.33-8,11.33,11.33,0,1,1,16,16Z"/><path class="h" d="M357.84,219.64a6.24,6.24,0,0,0-4.8-2.06,7.11,7.11,0,0,0-5,2,6.66,6.66,0,0,0-2,4.89,6.74,6.74,0,0,0,6.94,6.93,6.6,6.6,0,0,0,4.88-2,7.09,7.09,0,0,0,2-5A6.26,6.26,0,0,0,357.84,219.64Zm-10.63,13.89V261.9h11.57V233.53Z"/><path class="h" d="M403.91,224a23.17,23.17,0,0,0-32.55,0,21.69,21.69,0,0,0-6.68,16.19V261.9h11.57V240.23a10.66,10.66,0,0,1,3.34-8,11,11,0,0,1,8.05-3.33A11.4,11.4,0,0,1,399,240.23L399,261.9H410.6V240.23A21.7,21.7,0,0,0,403.91,224Z"/></svg>